# xmcd
# 
# Track frame offsets:
#     150
#     13824
#     30094
#     57497
#     85223
#     106155
#     121606
#     145230
#     156197
#     173468
#     202089
# 
# Disc length: 2938
# 
# Revision: 1
# Processed by: cddbd v1.5.2PL0 Copyright (c) Steve Scherf et al.
# Submitted via: fre:ac v1.0.27
# 
DISCID=830b780b
DTITLE=Ricky Skaggs and Bruce Hornsby - Ricky Skaggs and Bruce Hornsby
DYEAR=2007
DGENRE=Bluegrass
TTITLE0=The Dreaded Spoon
TTITLE1=Gulf Of Mexico Fishing Boat Blues
TTITLE2=Across The Rocky Mountain
TTITLE3=Mandolin Rain
TTITLE4=Stubb
TTITLE5=Come On Out
TTITLE6=A Night On The Town
TTITLE7=Sheep Shell Corn
TTITLE8=Hills Of Mexico
TTITLE9=Crown Of Jewels
TTITLE10=Super Freak
EXTD=
EXTT0=
EXTT1=
EXTT2=
EXTT3=
EXTT4=
EXTT5=
EXTT6=
EXTT7=
EXTT8=
EXTT9=
EXTT10=
PLAYORDER=
